<svg xmlns="http://www.w3.org/2000/svg" xmlns:xlink="http://www.w3.org/1999/xlink" x="0px" y="0px" width="48px" height="48px" viewBox="0 0 48 48"><g transform="translate(0, 0)"><path d="M46.707,23.293l-10-10a1,1,0,0,0-1.414,0L32.586,16H24a1,1,0,0,0-1,1v9a1,1,0,0,0,.293.707l10,10a1,1,0,0,0,1.414,0l12-12A1,1,0,0,0,46.707,23.293Z" fill="#ffd764"></path>
  <path d="M38.059,32.645,21.707,16.293A1,1,0,0,0,21,16H15.414l-2.707-2.707a1,1,0,0,0-1.414,0l-10,10a1,1,0,0,0,0,1.414l18.36,18.36a6.964,6.964,0,0,0,9.09.7l8.968-6.577a3,3,0,0,0,.348-4.54Z" fill="#e2ac4b"></path>
  <path d="M24.875,1h-1.75a.874.874,0,0,0-.866,1l.875,6.123a.875.875,0,0,0,1.732,0L25.741,2a.874.874,0,0,0-.866-1Z" fill="#b3b3b3"></path>
  <path d="M16.756,3.333a.875.875,0,0,0-1.23-.485l-1.551.809a.876.876,0,0,0-.306,1.286l3.607,5.023a.874.874,0,0,0,1.535-.8Z" fill="#b3b3b3"></path>
  <path d="M34.471,4.23a.875.875,0,0,0-.446-.573l-1.551-.809a.875.875,0,0,0-1.23.485L29.189,9.166a.874.874,0,0,0,1.535.8l3.607-5.023A.874.874,0,0,0,34.471,4.23Z" fill="#b3b3b3"></path>
  <path d="M28,16H22a1,1,0,0,0-.707.293l-6.5,6.5a3.121,3.121,0,1,0,4.414,4.414L24.414,22H28a1,1,0,0,0,1-1V17A1,1,0,0,0,28,16Z" fill="#ffd764"></path>
  <rect x="8.908" y="30.655" width="4.14" height="5.818" rx="2.07" ry="2.07" transform="translate(26.949 2.068) rotate(45)" fill="#ffd764"></rect>
  <rect x="11.582" y="32.694" width="4.421" height="7.369" rx="2.211" ry="2.211" transform="translate(29.763 0.902) rotate(45)" fill="#ffd764"></rect>
  <rect x="14.62" y="35.569" width="4.419" height="7.366" rx="2.21" ry="2.21" transform="translate(32.684 -0.404) rotate(45)" fill="#ffd764"></rect>
  <rect x="17.906" y="39.258" width="4.124" height="5.546" rx="2.062" ry="2.062" transform="translate(35.569 -1.809) rotate(45)" fill="#ffd764"></rect>
  <path d="M35,38a1,1,0,0,1-.707-.293l-3.5-3.5a1,1,0,0,1,1.414-1.414l3.5,3.5A1,1,0,0,1,35,38Z" fill="#aa7827"></path>
  <path d="M31,41a1,1,0,0,1-.707-.293l-3.5-3.5a1,1,0,0,1,1.414-1.414l3.5,3.5A1,1,0,0,1,31,41Z" fill="#aa7827"></path>
  <path d="M27,44a1,1,0,0,1-.707-.293l-3-3a1,1,0,0,1,1.414-1.414l3,3A1,1,0,0,1,27,44Z" fill="#aa7827"></path></g></svg>